<svg width="101" height="100" viewBox="0 0 101 100" fill="none" xmlns="http://www.w3.org/2000/svg">
<path d="M50.5 9.375C42.4651 9.375 34.6107 11.7576 27.93 16.2215C21.2492 20.6855 16.0422 27.0302 12.9674 34.4535C9.89259 41.8767 9.08808 50.0451 10.6556 57.9255C12.2231 65.806 16.0923 73.0447 21.7738 78.7262C27.4553 84.4077 34.694 88.2769 42.5745 89.8444C50.4549 91.4119 58.6233 90.6074 66.0465 87.5326C73.4698 84.4578 79.8145 79.2508 84.2785 72.57C88.7424 65.8893 91.125 58.0349 91.125 50C91.1136 39.2291 86.8299 28.9026 79.2137 21.2863C71.5975 13.6701 61.2709 9.38637 50.5 9.375ZM40.1992 65.625H60.8008C58.7031 72.7891 55.1875 79.2461 50.5 84.332C45.8125 79.2461 42.2969 72.7891 40.1992 65.625ZM38.7813 59.375C37.7448 53.168 37.7448 46.832 38.7813 40.625H62.2188C63.2552 46.832 63.2552 53.168 62.2188 59.375H38.7813ZM16.125 50C16.1223 46.8298 16.5601 43.6747 17.4258 40.625H32.4492C31.5169 46.8402 31.5169 53.1598 32.4492 59.375H17.4258C16.5601 56.3253 16.1223 53.1702 16.125 50ZM60.8008 34.375H40.1992C42.2969 27.2109 45.8125 20.7539 50.5 15.668C55.1875 20.7539 58.7031 27.2109 60.8008 34.375ZM68.5508 40.625H83.5742C85.3086 46.7547 85.3086 53.2453 83.5742 59.375H68.5508C69.4831 53.1598 69.4831 46.8402 68.5508 40.625ZM81.1133 34.375H67.2734C65.6787 28.0997 63.0004 22.151 59.3594 16.7969C64.0111 18.047 68.3498 20.2567 72.0963 23.2841C75.8429 26.3115 78.9144 30.0894 81.1133 34.375ZM41.6406 16.7969C37.9996 22.151 35.3213 28.0997 33.7266 34.375H19.8867C22.0857 30.0894 25.1571 26.3115 28.9037 23.2841C32.6502 20.2567 36.9889 18.047 41.6406 16.7969ZM19.8867 65.625H33.7266C35.3213 71.9004 37.9996 77.8491 41.6406 83.2031C36.9889 81.9531 32.6502 79.7433 28.9037 76.7159C25.1571 73.6885 22.0857 69.9106 19.8867 65.625ZM59.3594 83.2031C63.0004 77.8491 65.6787 71.9004 67.2734 65.625H81.1133C78.9144 69.9106 75.8429 73.6885 72.0963 76.7159C68.3498 79.7433 64.0111 81.9531 59.3594 83.2031Z" fill="#90CAF9"/>
</svg>
